<svg width="226" height="164" viewBox="0 0 226 164" fill="none" xmlns="http://www.w3.org/2000/svg">
<path d="M27.0581 18.9778C27.8757 18.9778 23.3557 16.349 22.5581 16.2C16.4982 15.068 4.83815 24.0078 12.0859 29.4778C20.1584 35.5702 31.2463 34.9114 34.5581 46.0889C35.6873 49.8998 36.6418 53.7432 38.8915 57.0889C40.7053 59.7864 42.6777 61.992 44.0581 64.95C44.9999 66.968 45.9079 69.6291 43.6137 71.0056C42.7273 71.5374 45.0638 76.1141 45.3081 76.7834C46.7016 80.6004 48.3678 85.3701 46.5026 89.3111C44.4315 93.6872 40.3995 95.664 35.947 96.8667C29.5856 98.585 22.9235 99.6331 16.3637 100.2C8.57768 100.873 1.27241 97.1207 2.05813 88.4778" stroke="#FFE600" stroke-width="3" stroke-linecap="round" stroke-linejoin="round"/>
<path d="M55.0581 23.9779C54.2888 23.9779 54.5581 22.3333 54.5581 21.9223C54.5581 19.7595 54.0339 17.6759 52.447 16.089C51.3429 14.9849 51.0581 15.7287 51.0581 16.8668C51.0581 22.1828 51.9176 27.4866 54.1137 32.3668C56.4754 37.6151 60.3725 41.9853 62.7248 47.2556C65.1774 52.7507 66.1008 58.9917 66.8081 64.9223C67.6938 72.3482 68.6383 79.8343 68.947 87.3112C69.166 92.6171 68.7658 97.4593 70.5581 102.478" stroke="#FFE600" stroke-width="3" stroke-linecap="round" stroke-linejoin="round"/>
<path d="M55.0581 32.9779C54.0567 33.4785 53.0351 33.1193 52.1692 32.4779C49.9952 30.8675 51.8294 27.3362 52.6692 25.589C54.7831 21.1907 58.7858 15.9049 63.2803 13.7001C69.7993 10.5021 70.8035 19.3215 71.5303 23.7279C72.2658 28.1866 72.245 35.0394 76.197 38.1445C79.6187 40.833 84.9737 40.492 88.0025 43.6723C92.2672 48.1502 90.3903 53.9907 87.197 58.4223C83.38 63.7193 76.7833 66.1478 70.5581 66.9779" stroke="#FFE600" stroke-width="3" stroke-linecap="round" stroke-linejoin="round"/>
<path d="M110.558 89.4777C110.558 90.8199 112.647 92.9649 111.058 94.2555C110.769 94.4905 110.599 93.6259 110.558 93.2555C110.239 90.3809 109.798 87.5724 109.253 84.7277C107.086 73.4263 105.001 61.8349 104.614 50.3111C104.414 44.3845 104.446 38.3072 105.947 32.5333C106.535 30.273 107.248 28.9839 105.975 26.7555C104.429 24.0508 101.462 24.3341 99.1692 22.7555C95.1561 19.9924 99.8017 12.6763 101.78 10.0888C104.01 7.17342 107.633 2.73903 111.475 2.06107C114.283 1.56543 115.293 4.18488 116.336 6.36662C121.785 17.7688 129.824 27.6067 133.308 39.8666C135.135 46.2958 136.203 52.9111 137.947 59.3666C139.516 65.1764 142.044 70.4247 144.28 75.9777C145.693 79.485 151.876 92.1599 148.558 95.4777" stroke="#FFE600" stroke-width="3" stroke-linecap="round" stroke-linejoin="round"/>
<path d="M104.058 69.9778C103.374 70.6622 101.619 71.1644 103.391 70.3667C108.468 68.0823 113.386 66.536 118.919 65.7278C127.839 64.4249 136.551 63.4778 145.558 63.4778" stroke="#FFE600" stroke-width="3" stroke-linecap="round" stroke-linejoin="round"/>
<path d="M160.058 9.97784C160.35 9.6864 162.586 7.43716 161.447 7.47784C157.445 7.62076 152.802 14.2082 151.169 17.3112C148.556 22.277 151.543 26.6598 153.169 31.4223C155.962 39.6017 152.762 46.5327 150.169 54.3112C148.474 59.3977 149.639 62.3594 154.28 64.9501C159.992 68.138 160.558 73.8295 160.558 79.9501C160.558 84.8658 160.39 90.2321 166.336 91.2001C171.478 92.0371 176.536 89.6058 181.058 87.4778" stroke="#FFE600" stroke-width="3" stroke-linecap="round" stroke-linejoin="round"/>
<path d="M183.058 28.4778C183.058 24.8497 182.914 20.2483 181.169 16.9778C175.245 5.86927 189.858 40.6168 193.753 52.5889C195.738 58.6938 196.847 65.0102 198.669 71.1444C200.001 75.6293 203.452 74.2869 206.503 72.2278C209.26 70.3665 212.353 66.6238 216.003 68.4778C218.891 69.945 220.599 72.0454 224.058 72.4778" stroke="#FFE600" stroke-width="3" stroke-linecap="round" stroke-linejoin="round"/>
<path d="M190.058 47.4777C186.551 47.4777 196.26 42.3799 199.669 43.1999C203.501 44.1214 205.947 47.6736 209.669 48.8666C213.264 50.0187 216 47.7162 218.558 45.4777" stroke="#FFE600" stroke-width="3" stroke-linecap="round" stroke-linejoin="round"/>
<path d="M182.058 19.9779C182.058 21.1361 180.915 20.7475 180.308 20.4779C176.433 18.7554 182.629 14.5356 184.586 13.5057C190.041 10.6343 193.385 13.2529 197.947 16.2557C202.9 19.5161 207.599 19.4666 213.058 17.9779" stroke="#FFE600" stroke-width="3" stroke-linecap="round" stroke-linejoin="round"/>
<path d="M22.3506 131.978C20.6593 131.978 19.0176 130.991 17.3506 130.478C14.9259 129.732 12.8678 130.344 10.4617 130.867C8.41961 131.311 8.74684 132.979 8.07279 134.756C6.08258 140.003 4.7146 144.48 7.87834 149.7C9.21858 151.911 10.8884 154.986 12.8783 156.645C15.6987 158.995 17.8564 157.292 20.3506 155.478" stroke="#FFE600" stroke-width="3" stroke-linecap="round" stroke-linejoin="round"/>
<path d="M34.3506 138.978C34.0235 138.651 33.7682 137.169 33.4617 138.089C32.2731 141.655 32.5797 146.617 33.6284 150.145C35.9479 157.947 45.4843 155.763 49.2395 150.589C51.1209 147.997 53.2969 144.644 53.3506 141.367C53.4076 137.891 52.6637 137.242 49.7117 135.506C47.3821 134.135 46.2052 131.951 43.3228 131.033C40.9602 130.282 37.9441 129.408 35.8506 130.978" stroke="#FFE600" stroke-width="3" stroke-linecap="round" stroke-linejoin="round"/>
<path d="M69.8506 132.978C70.8797 132.978 67.0955 133.126 66.3506 133.478C63.3837 134.879 64.6503 139.383 66.1561 141.478C69.4153 146.012 76.1438 148.654 75.2673 155.228C74.7378 159.199 67.3506 165.504 67.3506 158.478" stroke="#FFE600" stroke-width="3" stroke-linecap="round" stroke-linejoin="round"/>
<path d="M91.8506 132.978C90.6103 132.978 92.7322 138.797 92.9339 139.311C94.6237 143.62 96.7244 147.523 97.9617 151.978C98.908 155.384 97.7528 149.939 97.6006 149.144C96.8353 145.148 97.0625 137.728 101.184 135.256C104.605 133.203 106.854 134.283 107.628 138.2C108.067 140.42 107.323 145.16 109.128 140.728C110.021 138.536 111.908 135.145 114.851 136.2C119.603 137.904 119.211 149.299 120.351 153.478" stroke="#FFE600" stroke-width="3" stroke-linecap="round" stroke-linejoin="round"/>
<path d="M134.851 140.478C134.851 141.469 134.019 141.217 135.462 142.089C138.3 143.805 142.055 144.861 145.045 142.922C150.936 139.101 145.523 130.636 139.851 130.006C130.766 128.996 134.53 140.932 135.351 146.2C136.419 153.063 140.162 158.495 146.851 153.478" stroke="#FFE600" stroke-width="3" stroke-linecap="round" stroke-linejoin="round"/>
<path d="M164.351 128.478C162.97 127.097 162.869 124.107 164.656 129.561C165.757 132.922 168.775 152.478 171.851 152.478" stroke="#FFE600" stroke-width="3" stroke-linecap="round" stroke-linejoin="round"/>
<path d="M161.351 137.478C159.503 139.326 157.865 140.839 161.517 140.2C167.302 139.188 172.994 138.978 178.851 138.978" stroke="#FFE600" stroke-width="3" stroke-linecap="round" stroke-linejoin="round"/>
<path d="M191.851 133.978C189.495 133.978 190.811 137.41 191.101 138.506C191.914 141.577 191.149 149.197 194.351 150.478" stroke="#FFE600" stroke-width="3" stroke-linecap="round" stroke-linejoin="round"/>
<path d="M185.851 119.978C184.972 119.099 179.023 119.478 182.851 119.478" stroke="#FFE600" stroke-width="3" stroke-linecap="round" stroke-linejoin="round"/>
<path d="M220.351 131.478C220.351 130.745 217.94 128.793 217.351 128.367C213.7 125.73 211.209 129.147 209.962 132.367C208.08 137.223 207.895 145.153 212.351 148.867C216.122 152.01 220.795 148.16 223.851 145.978" stroke="#FFE600" stroke-width="3" stroke-linecap="round" stroke-linejoin="round"/>
</svg>
