<svg width="23" height="24" viewBox="0 0 23 24" fill="none" xmlns="http://www.w3.org/2000/svg">
<path d="M6.8 24H1C0.447715 24 0 23.5523 0 23V12.7153C0 12.4605 0.0972814 12.2153 0.271977 12.0298L10.872 0.773121C11.2668 0.353859 11.9332 0.353859 12.328 0.77312L22.728 11.8174C22.9027 12.0029 23 12.2481 23 12.5029V23C23 23.5523 22.5523 24 22 24H16C15.4477 24 15 23.5523 15 23V17.2035C15 17.2035 15 14.0177 11.6 14.0177C7.6 14.0177 7.8 17.2035 7.8 17.2035V23C7.8 23.5523 7.35228 24 6.8 24Z" fill="white"/>
</svg>
