<svg width="23" height="25" viewBox="0 0 23 25" fill="none" xmlns="http://www.w3.org/2000/svg">
<path fill-rule="evenodd" clip-rule="evenodd" d="M6.45551 5.39756V4.47224C6.45551 1.89812 8.73957 0 11.3115 0C13.8834 0 16.1675 1.89812 16.1675 4.47224V5.39756H18.1624C20.4522 5.39756 22.345 7.18019 22.479 9.4629L22.9887 18.1439C23.207 21.8637 20.2451 25 16.5137 25H6.48634C2.75492 25 -0.207026 21.8637 0.0113451 18.1439L0.520959 9.4629C0.654965 7.18018 2.5478 5.39756 4.83763 5.39756H6.45551ZM8.61755 4.47224C8.61755 3.29886 9.71372 2.15902 11.3115 2.15902C12.9093 2.15902 14.0054 3.29886 14.0054 4.47224V5.39756H8.61755V4.47224ZM8.80596 10.122C8.80342 9.52794 8.32041 9.04717 7.72495 9.04717C7.12792 9.04717 6.64393 9.53048 6.64393 10.1267L7.72495 10.1267C6.64393 10.1267 6.64393 10.1262 6.64393 10.1267L6.64393 10.1288L6.64394 10.1312L6.64397 10.1373L6.64415 10.1538C6.64434 10.1667 6.64469 10.1834 6.6453 10.2037C6.64652 10.2442 6.64883 10.2991 6.65318 10.3664C6.66187 10.5006 6.67882 10.686 6.71205 10.9061C6.77768 11.3408 6.91098 11.9385 7.1883 12.5507C7.46632 13.1644 7.90489 13.8265 8.59662 14.3355C9.30067 14.8535 10.2018 15.1644 11.3112 15.1644C12.4913 15.1644 13.4482 14.8667 14.2023 14.3646C14.9497 13.8671 15.4345 13.2114 15.7463 12.5885C16.056 11.9699 16.2055 11.3644 16.2793 10.9226C16.3166 10.6992 16.3356 10.5106 16.3454 10.3737C16.3503 10.305 16.3529 10.2488 16.3543 10.2071C16.355 10.1862 16.3554 10.1689 16.3556 10.1554L16.3559 10.1381L16.3559 10.1317L16.3559 10.129L16.3559 10.1278C16.3559 10.1272 16.3559 10.1267 15.2749 10.1267H16.3559C16.3559 9.53049 15.8719 9.04717 15.2749 9.04717C14.6798 9.04717 14.1971 9.52729 14.1939 10.1208L14.1935 10.1352C14.193 10.1514 14.1917 10.1803 14.1889 10.2198C14.1832 10.2994 14.1713 10.42 14.1466 10.5677C14.0965 10.8681 13.9983 11.2521 13.8125 11.623C13.6289 11.9897 13.3705 12.3236 13.003 12.5682C12.6424 12.8083 12.1129 13.0054 11.3112 13.0054C10.6274 13.0054 10.1837 12.8214 9.87914 12.5973C9.56225 12.3642 9.3284 12.0367 9.15815 11.6608C8.98719 11.2835 8.89635 10.8917 8.84992 10.5842C8.82712 10.4332 8.81605 10.3094 8.81072 10.2271C8.80807 10.1862 8.80688 10.1561 8.80635 10.1386L8.80596 10.122Z" fill="white"/>
</svg>
