<svg width="26" height="28" viewBox="0 0 26 28" fill="none" xmlns="http://www.w3.org/2000/svg">
<path d="M21.25 27H4.75C2.67893 27 1 25.3833 1 23.3889C1 17.4945 10 17.6112 13 17.6112C16 17.6112 25 17.4945 25 23.3889C25 25.3833 23.3211 27 21.25 27Z" fill="white"/>
<path d="M13 12.5555C16.3137 12.5555 19 9.9687 19 6.77774C19 3.58678 16.3137 1 13 1C9.68629 1 7 3.58678 7 6.77774C7 9.9687 9.68629 12.5555 13 12.5555Z" fill="white"/>
<path d="M21.25 27H4.75C2.67893 27 1 25.3833 1 23.3889C1 17.4945 10 17.6112 13 17.6112C16 17.6112 25 17.4945 25 23.3889C25 25.3833 23.3211 27 21.25 27Z" stroke="white" stroke-width="1.5" stroke-linecap="round" stroke-linejoin="round"/>
<path d="M13 12.5555C16.3137 12.5555 19 9.9687 19 6.77774C19 3.58678 16.3137 1 13 1C9.68629 1 7 3.58678 7 6.77774C7 9.9687 9.68629 12.5555 13 12.5555Z" stroke="white" stroke-width="1.5" stroke-linecap="round" stroke-linejoin="round"/>
</svg>
